<svg enable-background="new 0 0 24 24" height="512" viewBox="0 0 24 24" width="512" xmlns="http://www.w3.org/2000/svg"><path d="m18.749 8.026c-.064-.192-.231-.332-.431-.363l-5.319-.813-2.384-5.078c-.178-.379-.8-.379-.979 0l-2.383 5.079-5.319.813c-.2.031-.367.17-.431.363-.064.191-.016.404.126.549l3.864 3.961-.913 5.599c-.033.204.053.41.222.529s.392.132.573.031l4.751-2.626 4.751 2.626c.082.045.172.068.262.068.109 0 .219-.033.312-.099.169-.119.256-.325.222-.529l-.913-5.599 3.864-3.961c.14-.145.189-.358.125-.55z" fill="#ffe000"/><circle cx="17.5" cy="17.5" fill="#8bc34a" r="5.85"/><path d="m4.283 20c-.152 0-.303-.046-.432-.137-.234-.166-.354-.451-.308-.734l1.031-6.32-4.361-4.469c-.196-.201-.263-.495-.174-.762s.32-.46.598-.503l5.996-.917 2.688-5.728c.247-.526 1.11-.526 1.357 0l2.688 5.728 5.996.917c.278.042.509.237.598.503.089.267.021.561-.175.762l-1.328 1.36c-.289.296-.764.303-1.061.013-.296-.289-.302-.764-.013-1.061l.308-.315-4.949-.756c-.247-.038-.459-.196-.565-.422l-2.177-4.644-2.18 4.644c-.106.226-.318.384-.565.422l-4.949.756 3.605 3.695c.167.17.242.41.204.645l-.843 5.169 3.365-1.86c.361-.2.818-.07 1.019.293.201.362.069.819-.293 1.019l-4.717 2.607c-.113.064-.238.095-.363.095z"/><path d="m17.5 24c-3.584 0-6.5-2.916-6.5-6.5s2.916-6.5 6.5-6.5 6.5 2.916 6.5 6.5-2.916 6.5-6.5 6.5zm0-11.5c-2.757 0-5 2.243-5 5s2.243 5 5 5 5-2.243 5-5-2.243-5-5-5z"/><path d="m17.5 21c-.414 0-.75-.336-.75-.75v-5.5c0-.414.336-.75.75-.75s.75.336.75.75v5.5c0 .414-.336.75-.75.75z"/><path d="m20.25 18.25h-5.5c-.414 0-.75-.336-.75-.75s.336-.75.75-.75h5.5c.414 0 .75.336.75.75s-.336.75-.75.75z"/></svg>